<svg width="100" height="100" viewBox="0 0 100 100" fill="none" xmlns="http://www.w3.org/2000/svg">
<rect width="100" height="100" rx="2" fill="#EA4335"/>
<path d="M71.75 48.7917C71.7583 51.9814 71.0131 55.128 69.575 57.9751C67.8699 61.3868 65.2486 64.2564 62.0047 66.2625C58.7608 68.2686 55.0224 69.3319 51.2083 69.3334C48.0187 69.3417 44.8721 68.5965 42.025 67.1584L28.25 71.7501L32.8417 57.9751C31.4036 55.128 30.6584 51.9814 30.6667 48.7917C30.6681 44.9777 31.7315 41.2393 33.7376 37.9954C35.7437 34.7515 38.6133 32.1302 42.025 30.4251C44.8721 28.987 48.0187 28.2418 51.2083 28.2501H52.4167C57.4538 28.528 62.2115 30.6541 65.7788 34.2213C69.346 37.7885 71.4721 42.5462 71.75 47.5834V48.7917Z" stroke="white" stroke-width="4" stroke-linecap="round" stroke-linejoin="round"/>
</svg>
